<?xml version="1.0" encoding="UTF-8"?>
<svg version="1.1" xmlns="http://www.w3.org/2000/svg" width="1024" height="1024">
<path d="M0 0 C3.08407754 0.63015506 5.93531543 0.9547997 9.09765625 0.76953125 C9.09765625 1.42953125 9.09765625 2.08953125 9.09765625 2.76953125 C9.66218506 2.7960376 10.22671387 2.82254395 10.80834961 2.84985352 C18.45252286 3.39329989 25.3801399 5.39123883 32.66015625 7.70703125 C33.29048767 7.90582886 33.92081909 8.10462646 34.57025146 8.30944824 C78.03385861 22.06121624 118.47830044 43.30265653 154.09765625 71.76953125 C155.52658203 72.90841797 155.52658203 72.90841797 156.984375 74.0703125 C163.21409625 79.1010079 169.19322651 84.36306546 175.09765625 89.76953125 C176.05671875 90.63578125 177.01578125 91.50203125 178.00390625 92.39453125 C187.55161127 101.03757034 196.76775735 109.92830048 205.09765625 119.76953125 C205.89429688 120.67703125 206.6909375 121.58453125 207.51171875 122.51953125 C215.33357866 131.49001569 222.29074859 141.01390871 229.09765625 150.76953125 C229.77658936 151.74043701 229.77658936 151.74043701 230.46923828 152.73095703 C264.09765625 201.14109718 264.09765625 201.14109718 264.09765625 216.76953125 C264.75765625 217.09953125 265.41765625 217.42953125 266.09765625 217.76953125 C267.02092356 220.07400342 267.8303424 222.34148749 268.59375 224.69921875 C268.94506737 225.75666794 268.94506737 225.75666794 269.30348206 226.83547974 C269.80032464 228.33577301 270.29354069 229.83727128 270.78344727 231.33984375 C271.52159097 233.60294105 272.27043637 235.8622506 273.02148438 238.12109375 C280.09765625 259.51375882 280.09765625 259.51375882 280.09765625 264.76953125 C280.75765625 265.09953125 281.41765625 265.42953125 282.09765625 265.76953125 C282.58984375 268.05078125 282.58984375 268.05078125 282.97265625 271.26953125 C283.57787164 276.00558187 284.23937253 280.71119088 285.04296875 285.41796875 C301.19951289 380.13135546 279.3968147 478.63148529 224.18066406 557.41601562 C219.71115968 563.71660828 215.04337062 569.83467401 210.09765625 575.76953125 C209.67822754 576.27387695 209.25879883 576.77822266 208.82666016 577.29785156 C202.75579826 584.5689947 196.47537286 591.63610374 190.03515625 598.58203125 C189.3918335 599.28215332 188.74851074 599.98227539 188.08569336 600.70361328 C187.17702515 601.67403564 187.17702515 601.67403564 186.25 602.6640625 C185.44550415 603.52801636 185.44550415 603.52801636 184.62475586 604.40942383 C183.09765625 605.76953125 183.09765625 605.76953125 180.09765625 606.76953125 C180.09765625 607.42953125 180.09765625 608.08953125 180.09765625 608.76953125 C178.69921875 610.1796875 178.69921875 610.1796875 176.72265625 611.83203125 C173.55281458 614.5189023 170.4635478 617.26351597 167.41015625 620.08203125 C161.57292972 625.34087406 155.38269319 630.06934044 149.09765625 634.76953125 C148.22149658 635.43106201 148.22149658 635.43106201 147.32763672 636.10595703 C71.94695328 692.96417844 -25.73389418 717.15496798 -119.13891602 704.50219727 C-131.01967026 702.77803584 -142.73857631 700.4605385 -154.44165039 697.78808594 C-160.34025428 696.45261868 -166.02627264 695.41906918 -172.07202148 695.0847168 C-172.67602783 694.98070557 -173.28003418 694.87669434 -173.90234375 694.76953125 C-174.23234375 694.10953125 -174.56234375 693.44953125 -174.90234375 692.76953125 C-177.14569459 691.83308463 -177.14569459 691.83308463 -179.921875 691.02734375 C-180.99284424 690.68985107 -182.06381348 690.3523584 -183.16723633 690.00463867 C-184.33794678 689.63830322 -185.50865723 689.27196777 -186.71484375 688.89453125 C-209.5400829 681.49426188 -231.17946579 671.87924681 -251.90234375 659.76953125 C-252.69817871 659.30691895 -253.49401367 658.84430664 -254.31396484 658.36767578 C-269.70301568 649.36062068 -284.30555086 639.31885387 -297.90234375 627.76953125 C-298.95861778 626.89720381 -300.01596028 626.02616896 -301.07421875 625.15625 C-308.44141663 619.06431103 -315.23952772 612.62454389 -321.90234375 605.76953125 C-324.4095761 603.24653015 -326.93079664 600.74185434 -329.48046875 598.26171875 C-335.77149763 592.09945362 -341.45451984 585.70312531 -346.90234375 578.76953125 C-347.82102096 577.61801574 -348.74032002 576.46699614 -349.66015625 575.31640625 C-354.98823563 568.62651453 -360.11299948 561.85943391 -364.90234375 554.76953125 C-365.63710938 553.70992187 -366.371875 552.6503125 -367.12890625 551.55859375 C-377.73973066 536.11687715 -386.89615963 519.70077292 -394.90234375 502.76953125 C-395.25361328 502.03508789 -395.60488281 501.30064453 -395.96679688 500.54394531 C-411.75286797 467.3430815 -422.29947818 431.69456926 -427.15234375 395.26953125 C-427.31516846 394.05539551 -427.47799316 392.84125977 -427.64575195 391.59033203 C-429.50647355 377.01089155 -430.11029476 362.51055478 -430.08984375 347.83203125 C-430.0892395 347.02382935 -430.08863525 346.21562744 -430.0880127 345.38293457 C-429.95040098 277.20472256 -409.90042944 209.91782671 -370.90234375 153.76953125 C-369.78279297 152.14337891 -369.78279297 152.14337891 -368.640625 150.484375 C-359.75089434 137.71548914 -349.93024152 125.72961175 -339.3125 114.36328125 C-337.30662005 112.20460331 -335.37321461 110.01359144 -333.46484375 107.76953125 C-326.84547586 100.14771102 -319.55155355 92.98599354 -311.859375 86.453125 C-310.47812041 85.26486007 -309.12345226 84.04534932 -307.7890625 82.8046875 C-300.64165283 76.16180087 -292.97760583 70.28834429 -285.16552734 64.45898438 C-283.68345331 63.3526249 -282.20448023 62.24209632 -280.72900391 61.12695312 C-264.52007313 48.8957418 -247.23408149 38.43067713 -228.88623047 29.72314453 C-226.82637285 28.73301361 -224.78837203 27.70544897 -222.75 26.671875 C-201.954254 16.27978181 -179.44439239 8.39850822 -156.90234375 2.76953125 C-156.04286133 2.55103516 -155.18337891 2.33253906 -154.29785156 2.10742188 C-104.40219061 -10.34367244 -50.20376943 -10.55107399 0 0 Z M-295.42578125 95.50390625 C-296.79045835 96.75234903 -298.16305813 97.99290243 -299.56762695 99.19628906 C-305.23832431 104.0554363 -310.56041469 109.24143835 -315.83813477 114.52001953 C-317.3287599 116.00846362 -318.82721392 117.48870402 -320.32617188 118.96875 C-326.6337736 125.23895938 -332.40772652 131.76186458 -337.90234375 138.76953125 C-338.48153564 139.50010742 -339.06072754 140.23068359 -339.6574707 140.98339844 C-394.68807766 210.85456038 -420.23784551 296.88706985 -410.49560547 385.46777344 C-401.54376389 458.6884843 -370.58763629 529.41021039 -319.39550781 582.98608398 C-318.55777832 583.8630896 -318.55777832 583.8630896 -317.703125 584.7578125 C-317.20981689 585.26868408 -316.71650879 585.77955566 -316.20825195 586.3059082 C-314.90234375 587.76953125 -314.90234375 587.76953125 -312.90234375 590.76953125 C-312.24234375 590.76953125 -311.58234375 590.76953125 -310.90234375 590.76953125 C-310.40734375 592.25453125 -310.40734375 592.25453125 -309.90234375 593.76953125 C-309.24234375 593.76953125 -308.58234375 593.76953125 -307.90234375 593.76953125 C-307.40734375 595.25453125 -307.40734375 595.25453125 -306.90234375 596.76953125 C-306.24234375 596.76953125 -305.58234375 596.76953125 -304.90234375 596.76953125 C-304.90234375 597.42953125 -304.90234375 598.08953125 -304.90234375 598.76953125 C-303.45551323 600.27227011 -303.45551323 600.27227011 -301.52734375 601.83203125 C-298.33443831 604.53759849 -295.22621281 607.30443541 -292.15234375 610.14453125 C-273.34706993 627.04367293 -251.14222904 640.47748624 -228.83984375 652.20703125 C-227.85145508 652.72789307 -226.86306641 653.24875488 -225.84472656 653.78540039 C-219.10732671 657.36316836 -219.10732671 657.36316836 -211.90234375 659.76953125 C-210.91234375 659.43953125 -209.92234375 659.10953125 -208.90234375 658.76953125 C-208.90234375 659.75953125 -208.90234375 660.74953125 -208.90234375 661.76953125 C-169.95332587 679.01380538 -126.28483437 689.75967633 -83.53125 689.97265625 C-82.57920685 689.97967056 -81.6271637 689.98668488 -80.64627075 689.99391174 C-77.58574636 690.01132496 -74.52541588 690.01776554 -71.46484375 690.01953125 C-70.41600006 690.02020599 -69.36715637 690.02088074 -68.28652954 690.02157593 C-51.64539474 690.00459145 -35.36376625 689.42418167 -18.90234375 686.76953125 C-17.30036133 686.51212158 -17.30036133 686.51212158 -15.66601562 686.24951172 C39.60438542 677.04052143 94.2047937 656.23303748 138.09765625 620.76953125 C138.96519531 620.08246094 139.83273437 619.39539063 140.7265625 618.6875 C146.9063326 613.78430213 153.01176447 608.78853651 159.09765625 603.76953125 C160.21140625 602.86267578 160.21140625 602.86267578 161.34765625 601.9375 C162.96962793 600.59348717 164.54057068 599.18820921 166.09765625 597.76953125 C166.09765625 597.10953125 166.09765625 596.44953125 166.09765625 595.76953125 C166.97164062 595.3828125 166.97164062 595.3828125 167.86328125 594.98828125 C170.27794655 593.67119108 171.91505802 592.21864741 173.84765625 590.26953125 C174.46125 589.66109375 175.07484375 589.05265625 175.70703125 588.42578125 C177.31199713 586.87468848 177.31199713 586.87468848 177.09765625 584.76953125 C177.75765625 584.76953125 178.41765625 584.76953125 179.09765625 584.76953125 C179.09765625 584.10953125 179.09765625 583.44953125 179.09765625 582.76953125 C179.75765625 582.76953125 180.41765625 582.76953125 181.09765625 582.76953125 C182.53465847 581.42697725 182.53465847 581.42697725 184.03515625 579.58203125 C184.97101563 578.47794922 184.97101563 578.47794922 185.92578125 577.3515625 C186.6425 576.49949219 187.35921875 575.64742187 188.09765625 574.76953125 C188.9175 573.82464844 189.73734375 572.87976563 190.58203125 571.90625 C240.49776324 514.21728304 272.17352479 435.67848723 272.265625 358.93359375 C272.2689534 357.93355316 272.2722818 356.93351257 272.27571106 355.90316772 C272.28073969 353.79726617 272.28312065 351.69135677 272.28295898 349.58544922 C272.28512698 346.437033 272.30327587 343.28897864 272.32226562 340.140625 C272.37220941 322.56265607 271.30085261 305.19442768 268.03515625 287.89453125 C267.72251831 286.23139893 267.72251831 286.23139893 267.40356445 284.53466797 C259.91851139 246.76046748 245.87825456 208.15071594 224.5078125 175.96875 C223.09765625 173.76953125 223.09765625 173.76953125 222.19335938 171.90576172 C220.06216658 167.75069555 217.21411029 164.02259619 214.53515625 160.20703125 C213.58406982 158.85230713 213.58406982 158.85230713 212.61376953 157.47021484 C208.02654277 150.98458373 203.27102534 144.80056646 198.09765625 138.76953125 C196.92396484 137.32126953 196.92396484 137.32126953 195.7265625 135.84375 C188.97151072 127.59178987 181.55176742 120.00857453 174.03515625 112.45703125 C173.52854462 111.94524323 173.02193298 111.4334552 172.49996948 110.90615845 C166.44437541 104.80185429 160.27217064 99.07517338 153.52368164 93.72412109 C150.47788276 91.27019478 147.61073136 88.65356965 144.75390625 85.984375 C143.03682111 84.4738082 143.03682111 84.4738082 140.09765625 84.76953125 C139.85644043 84.1765625 139.61522461 83.58359375 139.36669922 82.97265625 C137.84215768 80.32597236 136.31583829 79.22875592 133.79296875 77.51953125 C132.9100415 76.91729736 132.02711426 76.31506348 131.11743164 75.69458008 C130.16215576 75.05931396 129.20687988 74.42404785 128.22265625 73.76953125 C126.7385022 72.77312622 126.7385022 72.77312622 125.22436523 71.7565918 C38.27691016 13.85867337 -70.1441328 -6.1382061 -295.42578125 95.50390625 Z " fill="#060606" transform="translate(581.90234375,159.23046875)"/>
<path d="M0 0 C0.66 0.33 1.32 0.66 2 1 C3.48156306 1.09482897 4.96731023 1.12794428 6.4519043 1.12939453 C7.37855392 1.13254669 8.30520355 1.13569885 9.25993347 1.13894653 C10.27114761 1.1369223 11.28236176 1.13489807 12.32421875 1.1328125 C13.37664261 1.13376923 14.42906647 1.13472595 15.51338196 1.13571167 C17.75884053 1.13639428 20.00430105 1.13453438 22.24975586 1.13037109 C25.60079734 1.12513546 28.95169774 1.13025389 32.30273438 1.13671875 C44.0713415 1.13911764 55.79487414 0.95777345 67.54533386 0.26150513 C72.54675885 -0.01026631 77.06930331 0.09063811 82 1 C82.98387679 5.05849177 83.03924323 8.83531255 83 13 C82.04738281 13.15855469 81.09476562 13.31710937 80.11328125 13.48046875 C78.85902344 13.71378906 77.60476563 13.94710938 76.3125 14.1875 C75.07113281 14.40792969 73.82976562 14.62835938 72.55078125 14.85546875 C67.18262669 16.585798 64.8520612 19.7097359 61.8125 24.3125 C56.87152058 34.9297006 57.71525033 49.14874614 57.8046875 60.5625 C57.80843326 61.97452592 57.8112728 63.3865545 57.81326294 64.79858398 C57.82077673 68.45466725 57.84031424 72.11058298 57.8626709 75.76660156 C57.88339897 79.52146134 57.89232133 83.27634909 57.90234375 87.03125 C57.92357634 94.35424176 57.95755704 101.67709711 58 109 C59.32 109 60.64 109 62 109 C62.33 108.34 62.66 107.68 63 107 C64.2684375 107.2784375 64.2684375 107.2784375 65.5625 107.5625 C68.95718492 108.15173629 68.95718492 108.15173629 72.16227722 107.53245544 C76.43922876 106.93906028 80.53266237 106.88168018 84.84106445 106.91821289 C85.69718826 106.92127945 86.55331207 106.92434601 87.43537903 106.92750549 C89.28233606 106.93462509 91.12928554 106.9439962 92.97622108 106.95540047 C95.89676543 106.97285638 98.81725462 106.98310934 101.73783875 106.99131775 C110.0372742 107.01572477 118.33663452 107.05152626 126.63598633 107.09594727 C131.7209188 107.1226634 136.80580914 107.13974642 141.89079857 107.15081596 C143.82896683 107.15703698 145.76712667 107.16705617 147.70525551 107.18089485 C150.40552839 107.20001919 153.10557695 107.20699349 155.8059082 107.21118164 C156.61058533 107.21994324 157.41526245 107.22870483 158.24432373 107.23773193 C162.58809204 107.40083229 162.58809204 107.40083229 166 105 C166.31504307 101.95374999 166.31504307 101.95374999 166.2746582 98.32226562 C166.27976913 97.63577942 166.28488007 96.94929321 166.29014587 96.24200439 C166.30408786 93.96333171 166.30308011 91.68496039 166.30078125 89.40625 C166.30466893 87.81880583 166.30900375 86.23136269 166.31376648 84.6439209 C166.32124093 81.30815268 166.32093098 77.97249023 166.31567383 74.63671875 C166.3099123 70.38450564 166.32672307 66.13273282 166.3500185 61.88059235 C166.36484267 58.59636954 166.36561522 55.31225022 166.36250877 52.02799988 C166.36301879 50.46208329 166.36819589 48.89616042 166.37832069 47.33027649 C166.54821844 32.73964845 166.54821844 32.73964845 160.875 19.5625 C157.17178643 16.26180964 153.70482195 15.28468014 149 14 C147.32636023 13.35103764 145.65538958 12.69419563 144 12 C143.75 4.375 143.75 4.375 146 1 C149.05415344 0.64596558 149.05415344 0.64596558 153.0324707 0.67529297 C153.75624908 0.67646118 154.48002747 0.67762939 155.22573853 0.67883301 C157.62604054 0.68603898 160.02563825 0.7142742 162.42578125 0.7421875 C164.09245672 0.75032261 165.75913997 0.75698626 167.42582703 0.76223755 C171.8217133 0.77938611 176.2172934 0.81364489 180.61303711 0.85229492 C187.63853254 0.91138609 194.66418103 0.94541594 201.68984032 0.97806168 C204.1432625 0.99200272 206.59652644 1.01360548 209.04988098 1.03634644 C210.55970143 1.04637477 212.06952297 1.05624055 213.5793457 1.06591797 C214.89457718 1.07718719 216.20980865 1.08845642 217.56489563 1.10006714 C220.89155699 1.10654669 220.89155699 1.10654669 223.65129089 0.43338013 C226 0 226 0 231 1 C231 4.96 231 8.92 231 13 C229.288125 13.4125 227.57625 13.825 225.8125 14.25 C220.46325122 15.75190446 217.00463679 16.94857334 213.85546875 21.7421875 C211.08641591 27.24115462 210.63753435 32.70888864 210.39892578 38.7421875 C210.36019915 39.64266312 210.32147251 40.54313873 210.28157234 41.47090149 C209.76190542 55.23505323 209.85423498 69.0167875 209.8656745 82.78859711 C209.86824721 86.86769167 209.86584749 90.94678423 209.86428833 95.02587891 C209.86248238 101.86051851 209.86483293 108.69514722 209.86962891 115.52978516 C209.87508599 123.39672113 209.87329204 131.26363123 209.8678025 139.1305666 C209.86324705 145.93538539 209.86263217 152.74019646 209.86524117 159.54501629 C209.86678837 163.58774426 209.86704059 167.6304601 209.86370468 171.67318726 C209.86078972 175.46878572 209.86286736 179.26435112 209.86859894 183.05994606 C209.87052372 185.09332358 209.86760499 187.12670394 209.86447144 189.16007996 C209.5133965 205.22354027 209.5133965 205.22354027 214.16015625 220.29296875 C215 222 215 222 215 224 C218.31016094 225.84790538 221.57173491 226.74541487 225.25 227.625 C226.32765625 227.88539063 227.4053125 228.14578125 228.515625 228.4140625 C229.33546875 228.60742188 230.1553125 228.80078125 231 229 C231 232.63 231 236.26 231 240 C202.62 240 174.24 240 145 240 C145 236.37 145 232.74 145 229 C145.83144531 228.79503906 146.66289062 228.59007812 147.51953125 228.37890625 C149.14955078 227.97478516 149.14955078 227.97478516 150.8125 227.5625 C151.89144531 227.29566406 152.97039062 227.02882813 154.08203125 226.75390625 C158.16040719 225.99648831 158.16040719 225.99648831 161 223.375 C161.33 222.59125 161.66 221.8075 162 221 C162.515625 219.88625 163.03125 218.7725 163.5625 217.625 C165.88661221 211.7641953 166.14443231 206.22037311 166.11352539 199.97509766 C166.11374443 198.80335495 166.11374443 198.80335495 166.1139679 197.60794067 C166.11327498 195.0432857 166.10551184 192.47870468 166.09765625 189.9140625 C166.09578986 188.12901855 166.094367 186.34397409 166.09336853 184.55892944 C166.08956075 179.87362235 166.07974538 175.18834654 166.06866455 170.50305176 C166.05841297 165.71688256 166.05386289 160.93070828 166.04882812 156.14453125 C166.03812149 146.76300713 166.02106604 137.38150617 166 128 C164.8640741 128.00392761 164.8640741 128.00392761 163.7052002 128.00793457 C141.16902459 128.07416566 118.64217881 127.85367914 96.10845947 127.53643799 C91.67519264 127.47450897 87.24189175 127.41511708 82.80859375 127.35546875 C74.20569529 127.23936756 65.60283643 127.12060957 57 127 C57.0714624 127.63798523 57.1429248 128.27597046 57.21655273 128.93328857 C57.98855092 136.46128226 58.11538289 143.89048699 58.0625 151.453125 C58.05871338 152.71155212 58.05492676 153.96997925 58.05102539 155.26654053 C58.03686335 159.93141693 58.01369218 164.59621397 57.98962402 169.26104736 C55.69866163 198.39539087 55.69866163 198.39539087 65.25 224.5625 C68.845881 226.44216507 72.00799231 226.69354284 76 227 C77.66934283 227.31966139 79.3373217 227.64731066 81 228 C81.33 228 81.66 228 82 228 C82.19401633 229.81181405 82.38004375 231.62448532 82.5625 233.4375 C82.71912109 234.95150391 82.71912109 234.95150391 82.87890625 236.49609375 C82.93884766 237.73552734 82.93884766 237.73552734 83 239 C81.37383339 240.62616661 79.54519209 240.16595542 77.29785156 240.20532227 C76.28949753 240.22526245 75.28114349 240.24520264 74.24223328 240.26574707 C73.13620255 240.2824646 72.03017181 240.29918213 70.890625 240.31640625 C69.7480574 240.33723267 68.60548981 240.35805908 67.42829895 240.3795166 C63.70226828 240.44570476 59.97616469 240.50438712 56.25 240.5625 C53.72061948 240.6052537 51.19124122 240.64814087 48.66186523 240.69116211 C31.77367064 240.96902479 14.89038535 241.14979875 -2 241 C-2.89445704 236.92212105 -3.08196118 233.18001995 -3 229 C-2.11957031 228.85304688 -1.23914063 228.70609375 -0.33203125 228.5546875 C7.09724112 227.41636253 7.09724112 227.41636253 13.125 223.375 C17.54685485 215.41566128 18.46553129 208.1266663 18.546875 199.10546875 C18.56719788 197.99569168 18.58752075 196.88591461 18.60845947 195.74250793 C18.64845694 193.41218353 18.68169559 191.08173424 18.70849609 188.7512207 C18.75007865 185.1807464 18.81272529 181.61111074 18.87890625 178.04101562 C18.91528633 175.77085262 18.95048414 173.50067028 18.984375 171.23046875 C19.0019989 170.16378464 19.0196228 169.09710052 19.03778076 167.99809265 C19.04819397 167.00638565 19.05860718 166.01467865 19.06933594 164.99291992 C19.08574127 163.68794807 19.08574127 163.68794807 19.10247803 162.35661316 C19.08031324 160.01915701 19.08031324 160.01915701 18.46870422 157.89144897 C17.72123125 154.87503283 18.53695993 152.0488276 19 149 C19.07850435 146.35566963 19.11754754 143.74032589 19.09765625 141.09765625 C19.0962413 140.3750914 19.09482635 139.65252655 19.09336853 138.9080658 C19.08782225 136.62616635 19.0752802 134.34436921 19.0625 132.0625 C19.05747804 130.50455872 19.05291636 128.94661588 19.04882812 127.38867188 C19.0378705 123.59240919 19.02064372 119.79622187 19 116 C18.34 116 17.68 116 17 116 C17 115.01 17 114.02 17 113 C17.99 113 18.98 113 20 113 C19.505 112.01 19.505 112.01 19 111 C18.90225206 108.91854396 18.87024259 106.83374453 18.875 104.75 C18.87113281 103.07164062 18.87113281 103.07164062 18.8671875 101.359375 C18.99391461 98.15392456 19.3991035 95.14755311 20 92 C19.34 91.67 18.68 91.34 18 91 C18.16153564 90.02651611 18.32307129 89.05303223 18.48950195 88.05004883 C19.09903684 83.75964645 19.16181289 79.52700782 19.16796875 75.19921875 C19.17129715 74.36397171 19.17462555 73.52872467 19.17805481 72.66816711 C19.18309789 70.90240016 19.18546395 69.13662376 19.18530273 67.37084961 C19.18746242 64.73339021 19.20557135 62.09636846 19.22460938 59.45898438 C19.25370324 50.93123285 19.0291774 42.5004776 18.12890625 34.015625 C18.0532695 33.27837692 17.97763275 32.54112885 17.89970398 31.78153992 C17.24808202 26.31582769 16.05777561 21.85544885 12 18 C7.66780922 15.11187281 3.02481853 14.12625243 -2 13 C-2.33 9.37 -2.66 5.74 -3 2 C-2.01 1.34 -1.02 0.68 0 0 Z " fill="#010101" transform="translate(263,368)"/>
<path d="M0 0 C2.68428385 0.08014588 5.34049184 0.1170847 8.0234375 0.09765625 C8.76961334 0.0962413 9.51578918 0.09482635 10.28457642 0.09336853 C12.64809318 0.08780874 15.01151227 0.07526389 17.375 0.0625 C18.98567571 0.0574798 20.59635291 0.0529178 22.20703125 0.04882812 C26.13805799 0.03785251 30.06901248 0.02061596 34 0 C35.87159208 8.3451347 37.53329782 16.64170916 38.625 25.125 C38.74979736 26.07149414 38.87459473 27.01798828 39.00317383 27.99316406 C40.30049636 38.01706825 41.20141828 47.88432645 41 58 C38.11788698 58.96070434 36.30149956 59.10581883 33.3125 59.0625 C32.10013672 59.04896484 32.10013672 59.04896484 30.86328125 59.03515625 C30.24839844 59.02355469 29.63351562 59.01195312 29 59 C28.84144531 58.12859375 28.68289063 57.2571875 28.51953125 56.359375 C26.15366363 44.28168616 22.90589714 30.78480279 12.4375 23.125 C-0.34557995 17.22511694 -14.67192048 17.71188221 -28.5 17.875 C-30.01692103 17.88507165 -31.5338487 17.89418995 -33.05078125 17.90234375 C-36.70066308 17.92397592 -40.3502859 17.9582633 -44 18 C-44.02323098 28.14487948 -44.04096975 38.28975256 -44.05181217 48.43465328 C-44.05701753 53.14597963 -44.06407233 57.85728769 -44.07543945 62.56860352 C-44.08635203 67.12031291 -44.0922945 71.67200479 -44.09487724 76.22372627 C-44.09671646 77.95513751 -44.10030786 79.68654786 -44.10573006 81.41795158 C-44.11305175 83.85409447 -44.11398629 86.29016613 -44.11352539 88.72631836 C-44.1189183 89.78584465 -44.1189183 89.78584465 -44.12442017 90.86677551 C-44.11407 95.96474379 -43.64701643 100.94495917 -43 106 C-37.75304199 107.41408457 -32.70826523 106.9246408 -27.3125 106.6875 C-26.26126953 106.65205078 -25.21003906 106.61660156 -24.12695312 106.58007812 C-13.03509497 106.11762978 -3.7131301 104.86753902 4.3125 96.625 C8.01249766 90.86944809 9.91054573 84.46735846 12 78 C14.97 78 17.94 78 21 78 C21.06941058 88.26573581 21.12276564 98.5314161 21.15543652 108.79733849 C21.17111433 113.56386967 21.19239099 118.3302407 21.22631836 123.09667969 C21.25883666 127.6937582 21.27683706 132.29068236 21.28463173 136.88786697 C21.29018882 138.64462338 21.30104003 140.40137103 21.31719017 142.15806198 C21.33886478 144.61256128 21.34197117 147.06641701 21.34057617 149.52099609 C21.351362 150.25251389 21.36214783 150.98403168 21.3732605 151.73771667 C21.36076355 153.76034546 21.36076355 153.76034546 21 157 C17.77626323 159.14915785 16.73296326 159.38286803 13 159 C10.32575214 156.32575214 10.01621312 153.44053391 9.1875 149.875 C6.90944397 140.87603757 4.38321026 134.86945216 -3.7421875 130.0078125 C-9.24145297 127.55312307 -14.4806415 126.73492179 -20.46484375 126.5859375 C-21.14301651 126.56657135 -21.82118927 126.5472052 -22.51991272 126.5272522 C-24.65898566 126.46808001 -26.79811428 126.42132481 -28.9375 126.375 C-30.39911036 126.33676255 -31.86069957 126.29770758 -33.32226562 126.2578125 C-36.88131543 126.16243181 -40.44052587 126.07817433 -44 126 C-43.9292627 126.89678467 -43.85852539 127.79356934 -43.78564453 128.7175293 C-43.25233434 135.76069168 -42.8346015 142.74925503 -42.875 149.8125 C-42.87693359 150.69736084 -42.87886719 151.58222168 -42.88085938 152.49389648 C-42.92920917 160.20367448 -43.28116759 167.89055997 -43.6418457 175.59082031 C-44.29832721 191.04829849 -44.08441005 206.53218276 -44 222 C-37.50792842 222.05108629 -31.01590948 222.08589434 -24.52368164 222.10986328 C-22.31923485 222.11986516 -20.11480114 222.13347099 -17.91040039 222.15087891 C-14.72539016 222.17538453 -11.5405567 222.18654155 -8.35546875 222.1953125 C-7.38417526 222.20563507 -6.41288177 222.21595764 -5.41215515 222.22659302 C6.71350391 222.22854136 18.19109689 220.34078278 27.625 212.1875 C36.651851 202.32838614 40.41788917 188.77465359 43 176 C47.71599818 175.07529447 50.67265609 174.77076223 55 177 C54.29684642 198.21584091 51.02812464 218.38916505 46 239 C42.24463093 239.87030157 38.7655712 240.12964161 34.91415405 240.14044189 C33.69156387 240.14615204 32.46897369 240.15186218 31.20933533 240.15774536 C29.86270152 240.15899051 28.51606759 240.16011565 27.16943359 240.16113281 C25.74500908 240.16576424 24.32058579 240.17078934 22.89616394 240.17617798 C19.03481195 240.189266 15.1734773 240.19573899 11.31210661 240.20018864 C8.90008149 240.203123 6.4880611 240.20722832 4.07603836 240.21169281 C-3.47006763 240.22535344 -11.0161628 240.23502915 -18.5622803 240.2388947 C-27.27562637 240.24338294 -35.98881616 240.26097218 -44.7021147 240.2898953 C-51.43851565 240.31148173 -58.17487251 240.32159722 -64.91130769 240.32293582 C-68.93500876 240.32398532 -72.95856263 240.32992466 -76.98222733 240.34775543 C-80.76287502 240.36418543 -84.54326397 240.36641658 -88.32393456 240.35761642 C-89.7127101 240.35684352 -91.10149929 240.361222 -92.4902401 240.37107468 C-94.38282533 240.38371715 -96.2755137 240.37615385 -98.16812134 240.36749268 C-99.22814173 240.36895924 -100.28816212 240.3704258 -101.38030434 240.3719368 C-104 240 -104 240 -105.85985374 238.60471725 C-107 237 -107 237 -107.07421875 234.95703125 C-106.71614583 232.97135417 -106.35807292 230.98567708 -106 229 C-105.41992188 228.82984375 -104.83984375 228.6596875 -104.2421875 228.484375 C-95.89588291 226.00216246 -95.89588291 226.00216246 -89.78125 220.10546875 C-86.69643076 214.16719171 -85.87472633 209.43578513 -85.85955811 202.70808411 C-85.85658698 201.97189352 -85.85361586 201.23570294 -85.8505547 200.47720355 C-85.84188026 198.00928629 -85.84036051 195.54141762 -85.83886719 193.07348633 C-85.83423807 191.30426937 -85.82921328 189.53505342 -85.82382202 187.76583862 C-85.81070372 182.95777367 -85.80425399 178.14972267 -85.79981136 173.34164262 C-85.79687929 170.33642467 -85.79277419 167.33121052 -85.78830719 164.32599449 C-85.7746328 154.91963971 -85.76496626 145.51329363 -85.7611053 136.1069296 C-85.75662671 125.25591755 -85.73908777 114.40503161 -85.7101047 103.5540579 C-85.68847023 95.16239598 -85.67840005 86.7707695 -85.67706418 78.37908 C-85.67601728 73.36926118 -85.67013404 68.35956091 -85.65224457 63.3497715 C-85.63573373 58.63427042 -85.63362301 53.91897661 -85.64238358 49.20345688 C-85.64315238 47.47695421 -85.63883198 45.75044026 -85.62892532 44.02396584 C-85.20501722 29.62243072 -85.20501722 29.62243072 -91.5 17.125 C-95.72165312 14.02840672 -100.97024702 13.10081782 -106 12 C-106 10.02 -106 8.04 -106 6 C-106.33 6 -106.66 6 -107 6 C-107 4.35 -107 2.7 -107 1 C-101.17505936 0.25067174 -95.48024732 -0.13985725 -89.60961914 -0.09765625 C-88.43205299 -0.09546585 -88.43205299 -0.09546585 -87.23069763 -0.0932312 C-85.54313071 -0.08945542 -83.85556762 -0.08337151 -82.16801643 -0.07516479 C-79.48874747 -0.06227676 -76.80952867 -0.05585395 -74.13023376 -0.05102539 C-67.47817383 -0.03773087 -60.82616205 -0.01352033 -54.1741333 0.01037598 C-48.54184162 0.03019076 -42.90956794 0.04579535 -37.27725029 0.05593872 C-34.65290422 0.06236472 -32.0286338 0.07487098 -29.40431213 0.08764648 C-22.1940817 0.10877468 -15.10833727 0.03491004 -7.93983459 -0.8455658 C-5.18831554 -1.06461986 -2.69650547 -0.53303015 0 0 Z " fill="#020202" transform="translate(723,369)"/>
<path d="M0 0 C1.65 0.33 3.3 0.66 5 1 C5 4.96 5 8.92 5 13 C4.11957031 13.21914063 3.23914063 13.43828125 2.33203125 13.6640625 C-6.95955098 16.09238228 -6.95955098 16.09238228 -13 23 C-15.98466246 29.86472367 -16.14968675 37.40667484 -16.13803101 44.79502869 C-16.14226293 45.90822498 -16.14226293 45.90822498 -16.14658034 47.04391009 C-16.15485313 49.50836956 -16.15625828 51.97278369 -16.15771484 54.43725586 C-16.16238866 56.21378707 -16.16753316 57.9903171 -16.17311096 59.7668457 C-16.1843565 63.58359094 -16.19280789 67.40032854 -16.19923019 71.21708488 C-16.20996041 77.26711256 -16.23022028 83.31708531 -16.25234985 89.36708069 C-16.31409991 106.56834379 -16.36818714 123.76960354 -16.40136719 140.97094727 C-16.419786 150.47829413 -16.44881321 159.98554862 -16.4893719 169.49282748 C-16.5103224 174.513994 -16.52588205 179.53504474 -16.52817917 184.55625725 C-16.53034663 189.28829379 -16.54642664 194.02008941 -16.57256889 198.75205231 C-16.57968452 200.47517882 -16.58190116 202.19833477 -16.57846642 203.92147255 C-16.53381391 230.61384021 -22.45643668 258.78059403 -41 279 C-41.62519531 279.70511719 -42.25039063 280.41023438 -42.89453125 281.13671875 C-55.51314346 294.62912488 -74.01601991 302.12024174 -92.28881836 303.12597656 C-106.69374668 303.59385171 -121.60561237 303.4037704 -134 295 C-137.01614889 292.16537859 -139.766815 289.09101955 -140.23828125 284.86328125 C-140.4094845 278.97929583 -140.15101082 274.43224462 -136 270 C-130.4932313 265.41296645 -124.99844616 264.18749365 -117.91796875 264.51953125 C-111.21872809 265.62261907 -106.57622762 269.49584164 -101.4375 273.6875 C-96.00605703 278.00817993 -91.39626777 279.30356901 -84.5 278.9375 C-77.83178254 277.94876431 -72.19084672 274.22248703 -68.15234375 268.82421875 C-52.69517208 244.35473004 -57.84581721 208.21652871 -57.8656745 180.4985714 C-57.86824236 175.78066326 -57.86584874 171.06275687 -57.86428833 166.34484863 C-57.8624808 158.43757776 -57.86483695 150.53031631 -57.86962891 142.62304688 C-57.87508391 133.51722193 -57.87329417 124.41141934 -57.8678025 115.30559492 C-57.8632488 107.4357813 -57.86263139 99.56597436 -57.86524117 91.69615984 C-57.86678962 87.01793076 -57.86703709 82.33971215 -57.86370468 77.66148376 C-57.86079241 73.26834577 -57.8628626 68.87523638 -57.86859894 64.48210144 C-57.86990803 62.88185676 -57.86956441 61.28160963 -57.86733627 59.68136597 C-56.95002363 38.49811021 -56.95002363 38.49811021 -63.9375 19.1875 C-68.52611285 15.90991939 -73.61559233 14.5371754 -79 13 C-79.02687279 11.18757948 -79.04633715 9.37504767 -79.0625 7.5625 C-79.07410156 6.55316406 -79.08570313 5.54382813 -79.09765625 4.50390625 C-79 2 -79 2 -78 1 C-75.60166316 0.91034075 -73.2323778 0.88501 -70.83398438 0.90234375 C-70.08441971 0.90380402 -69.33485504 0.90526428 -68.56257629 0.9067688 C-66.92996059 0.91058359 -65.29734908 0.91670931 -63.66474915 0.92483521 C-61.08520685 0.93754208 -58.50571565 0.9440997 -55.92614746 0.94897461 C-49.51895522 0.9623826 -43.11181146 0.98659342 -36.70465088 1.01037598 C-31.29442118 1.03004997 -25.88420931 1.04571433 -20.47395325 1.05593872 C-17.92510805 1.06245181 -15.37633555 1.07496031 -12.82751465 1.08764648 C-11.2736823 1.09127719 -9.71984927 1.09462915 -8.16601562 1.09765625 C-7.09375481 1.10540573 -7.09375481 1.10540573 -5.99983215 1.11331177 C-4.3327935 1.11349317 -2.66587499 1.06227695 -1 1 C-0.67 0.67 -0.34 0.34 0 0 Z " fill="#010101" transform="translate(609,368)"/>
<path d="M0 0 C0.66 0.33 1.32 0.66 2 1 C-10.54 13.54 -23.08 26.08 -36 39 C-36.66 38.67 -37.32 38.34 -38 38 C-37.25556641 37.27296875 -37.25556641 37.27296875 -36.49609375 36.53125 C-33.12099941 33.20098614 -29.82352327 29.86233846 -26.75 26.25 C-19.99489724 18.41284417 -12.52115707 11.07917146 -4.62109375 4.40234375 C-3.00223886 3.00193675 -1.49481669 1.53116482 0 0 Z " fill="#232323" transform="translate(275,241)"/>
<path d="M0 0 C0.66 0.33 1.32 0.66 2 1 C-0.31 3.31 -2.62 5.62 -5 8 C-5 5 -5 5 -2.5 2.3125 C-1.675 1.549375 -0.85 0.78625 0 0 Z " fill="#1D1D1D" transform="translate(476,636)"/>
<path d="M0 0 C0.33 0 0.66 0 1 0 C1 1.65 1 3.3 1 5 C0.67 5 0.34 5 0 5 C0 3.35 0 1.7 0 0 Z " fill="#161716" transform="translate(428,546)"/>
<path d="M0 0 C0.33 0 0.66 0 1 0 C1 1.65 1 3.3 1 5 C0.67 5 0.34 5 0 5 C0 3.35 0 1.7 0 0 Z " fill="#141413" transform="translate(428,498)"/>
<path d="M0 0 C0.33 0 0.66 0 1 0 C1 1.65 1 3.3 1 5 C0.67 5 0.34 5 0 5 C0 3.35 0 1.7 0 0 Z " fill="#171817" transform="translate(428,426)"/>
<path d="M0 0 C0.66 0.66 1.32 1.32 2 2 C1.01 2.33 0.02 2.66 -1 3 C-0.67 2.01 -0.34 1.02 0 0 Z " fill="#353633" transform="translate(340,192)"/>
<path d="M0 0 C1 4 1 4 1 4 Z " fill="#161615" transform="translate(428,532)"/>
<path d="M0 0 C1 4 1 4 1 4 Z " fill="#161515" transform="translate(428,524)"/>
<path d="M0 0 C1 4 1 4 1 4 Z " fill="#171716" transform="translate(428,468)"/>
<path d="M0 0 C0.99 0.495 0.99 0.495 2 1 C1.34 1.66 0.68 2.32 0 3 C0 2.01 0 1.02 0 0 Z " fill="#2F2D2C" transform="translate(723,245)"/>
<path d="M0 0 C0.66 0.66 1.32 1.32 2 2 C1.01 2.495 1.01 2.495 0 3 C0 2.01 0 1.02 0 0 Z " fill="#2F2E2D" transform="translate(672,211)"/>
<path d="M0 0 C0.99 0.495 0.99 0.495 2 1 C1.67 1.66 1.34 2.32 1 3 C0.67 2.01 0.34 1.02 0 0 Z " fill="#353535" transform="translate(320,201)"/>
<path d="M0 0 C0.66 0 1.32 0 2 0 C1.67 0.66 1.34 1.32 1 2 C0.67 1.34 0.34 0.68 0 0 Z " fill="#333432" transform="translate(433,859)"/>
<path d="M0 0 C0.66 0.66 1.32 1.32 2 2 C1.34 2 0.68 2 0 2 C0 1.34 0 0.68 0 0 Z " fill="#30302F" transform="translate(368,816)"/>
<path d="M0 0 C0.66 0 1.32 0 2 0 C1.67 0.66 1.34 1.32 1 2 C0.67 1.34 0.34 0.68 0 0 Z " fill="#313130" transform="translate(353,809)"/>
<path d="M0 0 C0.66 0 1.32 0 2 0 C1.67 0.66 1.34 1.32 1 2 C0.67 1.34 0.34 0.68 0 0 Z " fill="#2D2E2C" transform="translate(707,785)"/>
<path d="M0 0 C3 1 3 1 3 1 Z " fill="#252423" transform="translate(262,595)"/>
<path d="" fill="#1B1A1B" transform="translate(0,0)"/>
<path d="M0 0 C0.66 0 1.32 0 2 0 C1.67 0.66 1.34 1.32 1 2 C0.67 1.34 0.34 0.68 0 0 Z " fill="#2B2B2C" transform="translate(850,475)"/>
<path d="" fill="#171716" transform="translate(0,0)"/>
<path d="" fill="#282726" transform="translate(0,0)"/>
<path d="M0 0 C3 1 3 1 3 1 Z " fill="#353636" transform="translate(321,200)"/>
<path d="M0 0 C3 1 3 1 3 1 Z " fill="#373636" transform="translate(601,162)"/>
<path d="" fill="#343434" transform="translate(0,0)"/>
<path d="" fill="#2D2E2C" transform="translate(0,0)"/>
<path d="M0 0 C2 1 2 1 2 1 Z " fill="#312F2E" transform="translate(609,833)"/>
<path d="M0 0 C2 1 2 1 2 1 Z " fill="#30302F" transform="translate(650,818)"/>
<path d="M0 0 C2 1 2 1 2 1 Z " fill="#313030" transform="translate(650,816)"/>
<path d="M0 0 C2 1 2 1 2 1 Z " fill="#303230" transform="translate(371,816)"/>
<path d="M0 0 C2 1 2 1 2 1 Z " fill="#2E2E2E" transform="translate(324,793)"/>
<path d="" fill="#323333" transform="translate(0,0)"/>
<path d="" fill="#323130" transform="translate(0,0)"/>
<path d="" fill="#313131" transform="translate(0,0)"/>
<path d="M0 0 C2 1 2 1 2 1 Z " fill="#282827" transform="translate(486,669)"/>
<path d="" fill="#202221" transform="translate(0,0)"/>
<path d="M0 0 C2 1 2 1 2 1 Z " fill="#21211F" transform="translate(737,587)"/>
<path d="" fill="#1A1A17" transform="translate(0,0)"/>
<path d="" fill="#333233" transform="translate(0,0)"/>
<path d="" fill="#333231" transform="translate(0,0)"/>
<path d="" fill="#161716" transform="translate(0,0)"/>
<path d="" fill="#1C1B1B" transform="translate(0,0)"/>
<path d="" fill="#1B1C1B" transform="translate(0,0)"/>
<path d="" fill="#2D2D2D" transform="translate(0,0)"/>
<path d="" fill="#141515" transform="translate(0,0)"/>
<path d="" fill="#2A2C2C" transform="translate(0,0)"/>
<path d="" fill="#313131" transform="translate(0,0)"/>
<path d="M0 0 C2 1 2 1 2 1 Z " fill="#1A191A" transform="translate(280,464)"/>
<path d="" fill="#161816" transform="translate(0,0)"/>
<path d="" fill="#151717" transform="translate(0,0)"/>
<path d="" fill="#171717" transform="translate(0,0)"/>
<path d="" fill="#1A1B1A" transform="translate(0,0)"/>
<path d="" fill="#181818" transform="translate(0,0)"/>
<path d="" fill="#1C1C1C" transform="translate(0,0)"/>
<path d="M0 0 C2 1 2 1 2 1 Z " fill="#2C2B2D" transform="translate(825,380)"/>
<path d="" fill="#302E2E" transform="translate(0,0)"/>
<path d="M0 0 C2 1 2 1 2 1 Z " fill="#2E2E2D" transform="translate(659,205)"/>
<path d="M0 0 C2 1 2 1 2 1 Z " fill="#373738" transform="translate(377,176)"/>
<path d="M0 0 C2 1 2 1 2 1 Z " fill="#383836" transform="translate(472,152)"/>
<path d="" fill="#6F7070" transform="translate(0,0)"/>
<path d="" fill="#333534" transform="translate(0,0)"/>
<path d="" fill="#323432" transform="translate(0,0)"/>
<path d="" fill="#353435" transform="translate(0,0)"/>
<path d="" fill="#343432" transform="translate(0,0)"/>
<path d="" fill="#333532" transform="translate(0,0)"/>
<path d="" fill="#343432" transform="translate(0,0)"/>
<path d="" fill="#343432" transform="translate(0,0)"/>
<path d="" fill="#373633" transform="translate(0,0)"/>
<path d="" fill="#343434" transform="translate(0,0)"/>
<path d="" fill="#323231" transform="translate(0,0)"/>
<path d="" fill="#343533" transform="translate(0,0)"/>
<path d="" fill="#353433" transform="translate(0,0)"/>
<path d="" fill="#353232" transform="translate(0,0)"/>
<path d="" fill="#2E2F2F" transform="translate(0,0)"/>
<path d="" fill="#2E2E2B" transform="translate(0,0)"/>
<path d="" fill="#30302E" transform="translate(0,0)"/>
<path d="" fill="#2F2E2E" transform="translate(0,0)"/>
<path d="" fill="#303030" transform="translate(0,0)"/>
<path d="" fill="#343332" transform="translate(0,0)"/>
<path d="" fill="#32322F" transform="translate(0,0)"/>
<path d="" fill="#303130" transform="translate(0,0)"/>
<path d="" fill="#303231" transform="translate(0,0)"/>
<path d="" fill="#313031" transform="translate(0,0)"/>
<path d="" fill="#2E2B2E" transform="translate(0,0)"/>
<path d="" fill="#333031" transform="translate(0,0)"/>
<path d="" fill="#343431" transform="translate(0,0)"/>
<path d="" fill="#2E2D2E" transform="translate(0,0)"/>
<path d="" fill="#2E2D2D" transform="translate(0,0)"/>
<path d="" fill="#2F2F2D" transform="translate(0,0)"/>
<path d="" fill="#2E2F2B" transform="translate(0,0)"/>
<path d="" fill="#323230" transform="translate(0,0)"/>
<path d="" fill="#313132" transform="translate(0,0)"/>
<path d="" fill="#31312C" transform="translate(0,0)"/>
<path d="" fill="#323230" transform="translate(0,0)"/>
<path d="" fill="#323231" transform="translate(0,0)"/>
<path d="" fill="#313232" transform="translate(0,0)"/>
<path d="" fill="#323230" transform="translate(0,0)"/>
<path d="" fill="#343233" transform="translate(0,0)"/>
<path d="" fill="#2D2D2C" transform="translate(0,0)"/>
<path d="" fill="#363436" transform="translate(0,0)"/>
<path d="" fill="#2F312F" transform="translate(0,0)"/>
<path d="" fill="#2E312E" transform="translate(0,0)"/>
<path d="" fill="#303031" transform="translate(0,0)"/>
<path d="" fill="#323031" transform="translate(0,0)"/>
<path d="" fill="#343532" transform="translate(0,0)"/>
<path d="" fill="#2C2B2A" transform="translate(0,0)"/>
<path d="" fill="#2C2C2B" transform="translate(0,0)"/>
<path d="" fill="#2E3131" transform="translate(0,0)"/>
<path d="" fill="#2F2D2B" transform="translate(0,0)"/>
<path d="" fill="#2C2B2B" transform="translate(0,0)"/>
<path d="" fill="#31322E" transform="translate(0,0)"/>
<path d="" fill="#323131" transform="translate(0,0)"/>
<path d="" fill="#2D2F2C" transform="translate(0,0)"/>
<path d="" fill="#323130" transform="translate(0,0)"/>
<path d="" fill="#353635" transform="translate(0,0)"/>
<path d="" fill="#373534" transform="translate(0,0)"/>
<path d="" fill="#2C2C2D" transform="translate(0,0)"/>
<path d="" fill="#2E2C2D" transform="translate(0,0)"/>
<path d="" fill="#333333" transform="translate(0,0)"/>
<path d="" fill="#343535" transform="translate(0,0)"/>
<path d="" fill="#30302B" transform="translate(0,0)"/>
<path d="" fill="#2F2F2E" transform="translate(0,0)"/>
<path d="" fill="#302D2E" transform="translate(0,0)"/>
<path d="" fill="#30302C" transform="translate(0,0)"/>
<path d="" fill="#343332" transform="translate(0,0)"/>
<path d="" fill="#353333" transform="translate(0,0)"/>
<path d="" fill="#303130" transform="translate(0,0)"/>
<path d="" fill="#31322F" transform="translate(0,0)"/>
<path d="" fill="#343335" transform="translate(0,0)"/>
<path d="" fill="#353431" transform="translate(0,0)"/>
<path d="" fill="#303230" transform="translate(0,0)"/>
<path d="" fill="#2F302D" transform="translate(0,0)"/>
<path d="" fill="#2F302F" transform="translate(0,0)"/>
<path d="" fill="#343333" transform="translate(0,0)"/>
<path d="" fill="#363434" transform="translate(0,0)"/>
<path d="" fill="#33312F" transform="translate(0,0)"/>
<path d="" fill="#2F2D2E" transform="translate(0,0)"/>
<path d="" fill="#333232" transform="translate(0,0)"/>
<path d="" fill="#343332" transform="translate(0,0)"/>
<path d="" fill="#333332" transform="translate(0,0)"/>
<path d="" fill="#31302D" transform="translate(0,0)"/>
<path d="" fill="#363235" transform="translate(0,0)"/>
<path d="" fill="#2F2D2C" transform="translate(0,0)"/>
<path d="" fill="#333531" transform="translate(0,0)"/>
<path d="" fill="#2C2D2D" transform="translate(0,0)"/>
<path d="" fill="#2E2D2E" transform="translate(0,0)"/>
<path d="" fill="#303131" transform="translate(0,0)"/>
<path d="" fill="#2F2E2F" transform="translate(0,0)"/>
<path d="" fill="#353534" transform="translate(0,0)"/>
<path d="" fill="#2E302F" transform="translate(0,0)"/>
<path d="" fill="#353333" transform="translate(0,0)"/>
<path d="" fill="#282925" transform="translate(0,0)"/>
<path d="" fill="#2A2A2A" transform="translate(0,0)"/>
<path d="" fill="#363535" transform="translate(0,0)"/>
<path d="" fill="#2B2B2C" transform="translate(0,0)"/>
<path d="" fill="#2C292A" transform="translate(0,0)"/>
<path d="" fill="#343333" transform="translate(0,0)"/>
<path d="" fill="#343332" transform="translate(0,0)"/>
<path d="" fill="#333332" transform="translate(0,0)"/>
<path d="" fill="#2E2B2D" transform="translate(0,0)"/>
<path d="" fill="#2E2D2B" transform="translate(0,0)"/>
<path d="" fill="#343433" transform="translate(0,0)"/>
<path d="" fill="#2E2E2D" transform="translate(0,0)"/>
<path d="" fill="#323231" transform="translate(0,0)"/>
<path d="" fill="#1F201F" transform="translate(0,0)"/>
<path d="" fill="#333232" transform="translate(0,0)"/>
<path d="" fill="#30312F" transform="translate(0,0)"/>
<path d="" fill="#262728" transform="translate(0,0)"/>
<path d="" fill="#242526" transform="translate(0,0)"/>
<path d="" fill="#1E211E" transform="translate(0,0)"/>
<path d="" fill="#302E2E" transform="translate(0,0)"/>
<path d="" fill="#201E1E" transform="translate(0,0)"/>
<path d="" fill="#1E1F1E" transform="translate(0,0)"/>
<path d="" fill="#242523" transform="translate(0,0)"/>
<path d="" fill="#212020" transform="translate(0,0)"/>
<path d="" fill="#212222" transform="translate(0,0)"/>
<path d="" fill="#252222" transform="translate(0,0)"/>
<path d="" fill="#2F3130" transform="translate(0,0)"/>
<path d="" fill="#222424" transform="translate(0,0)"/>
<path d="" fill="#333231" transform="translate(0,0)"/>
<path d="" fill="#373232" transform="translate(0,0)"/>
<path d="" fill="#202122" transform="translate(0,0)"/>
<path d="" fill="#2F312E" transform="translate(0,0)"/>
<path d="" fill="#1E1F1D" transform="translate(0,0)"/>
<path d="" fill="#2E2E2D" transform="translate(0,0)"/>
<path d="" fill="#1F1E21" transform="translate(0,0)"/>
<path d="" fill="#32312F" transform="translate(0,0)"/>
<path d="" fill="#1A1B1A" transform="translate(0,0)"/>
<path d="" fill="#1B1A19" transform="translate(0,0)"/>
<path d="" fill="#1E1E21" transform="translate(0,0)"/>
<path d="" fill="#323232" transform="translate(0,0)"/>
<path d="" fill="#2F2E30" transform="translate(0,0)"/>
<path d="" fill="#201F1E" transform="translate(0,0)"/>
<path d="" fill="#252221" transform="translate(0,0)"/>
<path d="" fill="#1D1E1C" transform="translate(0,0)"/>
<path d="" fill="#1B1E1E" transform="translate(0,0)"/>
<path d="" fill="#2E2F2E" transform="translate(0,0)"/>
<path d="" fill="#2E2C2D" transform="translate(0,0)"/>
<path d="" fill="#1F1C1C" transform="translate(0,0)"/>
<path d="" fill="#202121" transform="translate(0,0)"/>
<path d="" fill="#2A2C2A" transform="translate(0,0)"/>
<path d="" fill="#1B1B1C" transform="translate(0,0)"/>
<path d="" fill="#1F2121" transform="translate(0,0)"/>
<path d="" fill="#1C1A1A" transform="translate(0,0)"/>
<path d="" fill="#2B2A2A" transform="translate(0,0)"/>
<path d="" fill="#323230" transform="translate(0,0)"/>
<path d="" fill="#242423" transform="translate(0,0)"/>
<path d="" fill="#1D1F20" transform="translate(0,0)"/>
<path d="" fill="#1A1917" transform="translate(0,0)"/>
<path d="" fill="#1C1E1D" transform="translate(0,0)"/>
<path d="" fill="#2C2C2D" transform="translate(0,0)"/>
<path d="" fill="#181918" transform="translate(0,0)"/>
<path d="" fill="#2D2D2F" transform="translate(0,0)"/>
<path d="" fill="#1D1D1C" transform="translate(0,0)"/>
<path d="" fill="#2F2C2F" transform="translate(0,0)"/>
<path d="" fill="#323332" transform="translate(0,0)"/>
<path d="" fill="#161817" transform="translate(0,0)"/>
<path d="" fill="#2E2D2D" transform="translate(0,0)"/>
<path d="" fill="#1B1B1A" transform="translate(0,0)"/>
<path d="" fill="#161716" transform="translate(0,0)"/>
<path d="" fill="#1C1B1B" transform="translate(0,0)"/>
<path d="" fill="#2D2D2B" transform="translate(0,0)"/>
<path d="" fill="#2C2A2A" transform="translate(0,0)"/>
<path d="" fill="#1A1918" transform="translate(0,0)"/>
<path d="" fill="#2E2C2E" transform="translate(0,0)"/>
<path d="" fill="#1F1B1B" transform="translate(0,0)"/>
<path d="" fill="#171717" transform="translate(0,0)"/>
<path d="" fill="#191B19" transform="translate(0,0)"/>
<path d="" fill="#222220" transform="translate(0,0)"/>
<path d="" fill="#171617" transform="translate(0,0)"/>
<path d="" fill="#1C1A1C" transform="translate(0,0)"/>
<path d="" fill="#161615" transform="translate(0,0)"/>
<path d="" fill="#1E1C1B" transform="translate(0,0)"/>
<path d="" fill="#151616" transform="translate(0,0)"/>
<path d="" fill="#1B1A1C" transform="translate(0,0)"/>
<path d="" fill="#2C2B2B" transform="translate(0,0)"/>
<path d="" fill="#1B1B1A" transform="translate(0,0)"/>
<path d="" fill="#2D2C2C" transform="translate(0,0)"/>
<path d="" fill="#191B1A" transform="translate(0,0)"/>
<path d="" fill="#2A2B2B" transform="translate(0,0)"/>
<path d="" fill="#1B1C1A" transform="translate(0,0)"/>
<path d="" fill="#181716" transform="translate(0,0)"/>
<path d="" fill="#1C1B1E" transform="translate(0,0)"/>
<path d="" fill="#1D1E1E" transform="translate(0,0)"/>
<path d="" fill="#201E1E" transform="translate(0,0)"/>
<path d="" fill="#201F1F" transform="translate(0,0)"/>
<path d="" fill="#1D1D1E" transform="translate(0,0)"/>
<path d="" fill="#1A1B19" transform="translate(0,0)"/>
<path d="" fill="#1C1B19" transform="translate(0,0)"/>
<path d="" fill="#201D1F" transform="translate(0,0)"/>
<path d="" fill="#1F2120" transform="translate(0,0)"/>
<path d="" fill="#1A1B19" transform="translate(0,0)"/>
<path d="" fill="#1C1A1A" transform="translate(0,0)"/>
<path d="" fill="#1A191A" transform="translate(0,0)"/>
<path d="" fill="#181816" transform="translate(0,0)"/>
<path d="" fill="#1A191A" transform="translate(0,0)"/>
<path d="" fill="#2F2C2D" transform="translate(0,0)"/>
<path d="" fill="#181816" transform="translate(0,0)"/>
<path d="" fill="#1A1A19" transform="translate(0,0)"/>
<path d="" fill="#2A2C2A" transform="translate(0,0)"/>
<path d="" fill="#2D2D2D" transform="translate(0,0)"/>
<path d="" fill="#2C2D2D" transform="translate(0,0)"/>
<path d="" fill="#1A1B18" transform="translate(0,0)"/>
<path d="" fill="#2D2C2B" transform="translate(0,0)"/>
<path d="" fill="#252425" transform="translate(0,0)"/>
<path d="" fill="#1A1A1B" transform="translate(0,0)"/>
<path d="" fill="#1B1C1B" transform="translate(0,0)"/>
<path d="" fill="#191918" transform="translate(0,0)"/>
<path d="" fill="#1C1B1B" transform="translate(0,0)"/>
<path d="" fill="#1D1D1B" transform="translate(0,0)"/>
<path d="" fill="#1B1A1B" transform="translate(0,0)"/>
<path d="" fill="#1C1C1C" transform="translate(0,0)"/>
<path d="" fill="#2F2F2F" transform="translate(0,0)"/>
<path d="" fill="#1D1C1C" transform="translate(0,0)"/>
<path d="" fill="#1F1F1F" transform="translate(0,0)"/>
<path d="" fill="#2E2F2D" transform="translate(0,0)"/>
<path d="" fill="#20201D" transform="translate(0,0)"/>
<path d="" fill="#2A2B29" transform="translate(0,0)"/>
<path d="" fill="#1C1D1B" transform="translate(0,0)"/>
<path d="" fill="#1C1C1C" transform="translate(0,0)"/>
<path d="" fill="#201E1F" transform="translate(0,0)"/>
<path d="" fill="#1F1F20" transform="translate(0,0)"/>
<path d="" fill="#222022" transform="translate(0,0)"/>
<path d="" fill="#201F1F" transform="translate(0,0)"/>
<path d="" fill="#262626" transform="translate(0,0)"/>
<path d="" fill="#212221" transform="translate(0,0)"/>
<path d="" fill="#1F1E1F" transform="translate(0,0)"/>
<path d="" fill="#1E1F1D" transform="translate(0,0)"/>
<path d="" fill="#1E1E1D" transform="translate(0,0)"/>
<path d="" fill="#313332" transform="translate(0,0)"/>
<path d="" fill="#2E2F2E" transform="translate(0,0)"/>
<path d="" fill="#1F1F1E" transform="translate(0,0)"/>
<path d="" fill="#2F3031" transform="translate(0,0)"/>
<path d="" fill="#2F302F" transform="translate(0,0)"/>
<path d="" fill="#212323" transform="translate(0,0)"/>
<path d="" fill="#323233" transform="translate(0,0)"/>
<path d="" fill="#2F2D2F" transform="translate(0,0)"/>
<path d="" fill="#20211F" transform="translate(0,0)"/>
<path d="" fill="#222323" transform="translate(0,0)"/>
<path d="" fill="#222420" transform="translate(0,0)"/>
<path d="" fill="#242425" transform="translate(0,0)"/>
<path d="" fill="#222322" transform="translate(0,0)"/>
<path d="" fill="#272927" transform="translate(0,0)"/>
<path d="" fill="#252426" transform="translate(0,0)"/>
<path d="" fill="#2A292A" transform="translate(0,0)"/>
<path d="" fill="#262626" transform="translate(0,0)"/>
<path d="" fill="#262726" transform="translate(0,0)"/>
<path d="" fill="#2D2C2B" transform="translate(0,0)"/>
<path d="" fill="#262425" transform="translate(0,0)"/>
<path d="" fill="#222323" transform="translate(0,0)"/>
<path d="" fill="#2A2C2B" transform="translate(0,0)"/>
<path d="" fill="#262827" transform="translate(0,0)"/>
<path d="" fill="#292C2D" transform="translate(0,0)"/>
<path d="" fill="#2F2E2D" transform="translate(0,0)"/>
<path d="" fill="#2D2D2E" transform="translate(0,0)"/>
<path d="" fill="#322E2F" transform="translate(0,0)"/>
<path d="" fill="#32312F" transform="translate(0,0)"/>
<path d="" fill="#343332" transform="translate(0,0)"/>
<path d="" fill="#2E312D" transform="translate(0,0)"/>
<path d="" fill="#30302E" transform="translate(0,0)"/>
<path d="" fill="#2E2E2E" transform="translate(0,0)"/>
<path d="" fill="#302E2D" transform="translate(0,0)"/>
<path d="" fill="#323234" transform="translate(0,0)"/>
<path d="" fill="#2D2B2B" transform="translate(0,0)"/>
<path d="" fill="#292928" transform="translate(0,0)"/>
<path d="" fill="#2F302D" transform="translate(0,0)"/>
<path d="" fill="#2F2E2E" transform="translate(0,0)"/>
<path d="" fill="#343231" transform="translate(0,0)"/>
<path d="" fill="#333435" transform="translate(0,0)"/>
<path d="" fill="#30312F" transform="translate(0,0)"/>
<path d="" fill="#2D2F2D" transform="translate(0,0)"/>
<path d="" fill="#2C2E2B" transform="translate(0,0)"/>
<path d="" fill="#2E302F" transform="translate(0,0)"/>
<path d="" fill="#2D2D2B" transform="translate(0,0)"/>
<path d="" fill="#353535" transform="translate(0,0)"/>
<path d="" fill="#2E2F2E" transform="translate(0,0)"/>
<path d="" fill="#343431" transform="translate(0,0)"/>
<path d="" fill="#2F302D" transform="translate(0,0)"/>
<path d="" fill="#303131" transform="translate(0,0)"/>
<path d="" fill="#363435" transform="translate(0,0)"/>
<path d="" fill="#2F302F" transform="translate(0,0)"/>
<path d="" fill="#2F2E2C" transform="translate(0,0)"/>
<path d="" fill="#312F2C" transform="translate(0,0)"/>
<path d="" fill="#332F32" transform="translate(0,0)"/>
<path d="" fill="#313131" transform="translate(0,0)"/>
<path d="" fill="#303231" transform="translate(0,0)"/>
<path d="" fill="#332F2F" transform="translate(0,0)"/>
<path d="" fill="#333331" transform="translate(0,0)"/>
<path d="" fill="#302F2E" transform="translate(0,0)"/>
<path d="" fill="#2F302F" transform="translate(0,0)"/>
<path d="" fill="#2F2F2E" transform="translate(0,0)"/>
<path d="" fill="#312F30" transform="translate(0,0)"/>
<path d="" fill="#2D2E2E" transform="translate(0,0)"/>
<path d="" fill="#323131" transform="translate(0,0)"/>
<path d="" fill="#353534" transform="translate(0,0)"/>
<path d="" fill="#302F2F" transform="translate(0,0)"/>
<path d="" fill="#343332" transform="translate(0,0)"/>
<path d="" fill="#2F312E" transform="translate(0,0)"/>
<path d="" fill="#323231" transform="translate(0,0)"/>
<path d="" fill="#343031" transform="translate(0,0)"/>
<path d="" fill="#322E2D" transform="translate(0,0)"/>
<path d="" fill="#32312E" transform="translate(0,0)"/>
<path d="" fill="#2E2E2C" transform="translate(0,0)"/>
<path d="" fill="#323231" transform="translate(0,0)"/>
<path d="" fill="#313630" transform="translate(0,0)"/>
<path d="" fill="#313130" transform="translate(0,0)"/>
<path d="" fill="#31312D" transform="translate(0,0)"/>
<path d="" fill="#353535" transform="translate(0,0)"/>
<path d="" fill="#343434" transform="translate(0,0)"/>
<path d="" fill="#30322F" transform="translate(0,0)"/>
<path d="" fill="#303230" transform="translate(0,0)"/>
<path d="" fill="#363432" transform="translate(0,0)"/>
<path d="" fill="#353434" transform="translate(0,0)"/>
<path d="" fill="#363534" transform="translate(0,0)"/>
<path d="" fill="#2B2B2E" transform="translate(0,0)"/>
<path d="" fill="#323133" transform="translate(0,0)"/>
<path d="" fill="#2F2D2E" transform="translate(0,0)"/>
<path d="" fill="#312D2F" transform="translate(0,0)"/>
<path d="" fill="#2C2E2F" transform="translate(0,0)"/>
<path d="" fill="#2F2F2E" transform="translate(0,0)"/>
<path d="" fill="#373637" transform="translate(0,0)"/>
<path d="" fill="#343433" transform="translate(0,0)"/>
<path d="" fill="#353433" transform="translate(0,0)"/>
<path d="" fill="#2F2E2C" transform="translate(0,0)"/>
<path d="" fill="#2E2C2A" transform="translate(0,0)"/>
<path d="" fill="#2F312D" transform="translate(0,0)"/>
<path d="" fill="#373634" transform="translate(0,0)"/>
<path d="" fill="#2E2C2E" transform="translate(0,0)"/>
<path d="" fill="#323131" transform="translate(0,0)"/>
<path d="" fill="#333231" transform="translate(0,0)"/>
<path d="" fill="#343433" transform="translate(0,0)"/>
<path d="" fill="#373635" transform="translate(0,0)"/>
<path d="" fill="#343633" transform="translate(0,0)"/>
<path d="" fill="#343333" transform="translate(0,0)"/>
<path d="" fill="#323130" transform="translate(0,0)"/>
<path d="" fill="#313030" transform="translate(0,0)"/>
<path d="" fill="#323232" transform="translate(0,0)"/>
<path d="" fill="#31332E" transform="translate(0,0)"/>
<path d="" fill="#373636" transform="translate(0,0)"/>
<path d="" fill="#303031" transform="translate(0,0)"/>
<path d="" fill="#353533" transform="translate(0,0)"/>
<path d="" fill="#3A3939" transform="translate(0,0)"/>
<path d="" fill="#302F30" transform="translate(0,0)"/>
<path d="" fill="#323130" transform="translate(0,0)"/>
<path d="" fill="#333231" transform="translate(0,0)"/>
<path d="" fill="#323132" transform="translate(0,0)"/>
<path d="" fill="#31312E" transform="translate(0,0)"/>
<path d="" fill="#333331" transform="translate(0,0)"/>
<path d="" fill="#323130" transform="translate(0,0)"/>
<path d="" fill="#313330" transform="translate(0,0)"/>
<path d="" fill="#333232" transform="translate(0,0)"/>
<path d="" fill="#343537" transform="translate(0,0)"/>
<path d="" fill="#2F2E2E" transform="translate(0,0)"/>
<path d="" fill="#393937" transform="translate(0,0)"/>
<path d="" fill="#383B37" transform="translate(0,0)"/>
<path d="" fill="#393938" transform="translate(0,0)"/>
<path d="" fill="#393837" transform="translate(0,0)"/>
<path d="" fill="#373533" transform="translate(0,0)"/>
<path d="" fill="#3A3A3A" transform="translate(0,0)"/>
<path d="" fill="#3A3A39" transform="translate(0,0)"/>
<path d="" fill="#383A37" transform="translate(0,0)"/>
<path d="" fill="#373536" transform="translate(0,0)"/>
<path d="" fill="#383838" transform="translate(0,0)"/>
<path d="" fill="#353333" transform="translate(0,0)"/>
<path d="" fill="#383738" transform="translate(0,0)"/>
</svg>
